# xmcd CD database file
# 
# Track frame offsets:
# 	150
# 	11859
# 	21676
# 	33852
# 	45891
# 	58823
# 	72675
# 	83427
# 	94338
# 	106805
# 	116762
# 	129287
# 	146118
# 	159546
# 	169942
# 	182421
# 	190890
# 	199022
# 	208710
# 	220078
# 
# Disc length: 3108 seconds
# 
# Submitted via: Nero 5.5.7.3
# 
# Revision: 0
# Processed by: cddbd v1.4PL0 Copyright (c) Steve Scherf et al.
#
DISCID=1f0c2214
DTITLE=Various Artist - Dvorana slavy 4
DYEAR=1900
DGENRE=
TTITLE0=Hank Williams - Kaw - Liga
TTITLE1=Johnny Cash - Rock Island Line
TTITLE2=Loretta Lynn - Success
TTITLE3=Browns - Scarlet Ribbons (For Her Hair)
TTITLE4=Johnny Horton - North To Alaska
TTITLE5=Lefty Frizzell - Saginaw, Michigan
TTITLE6=Buck Owens - Act Naturally
TTITLE7=Hank Snow - Let Me Go Lover
TTITLE8=Sons Of Pioneers - Cool Water
TTITLE9=Skeeter Davis - Silver Threads And Golden Needles
TTITLE10=Bill Monroe - Uncle Pen
TTITLE11=Everly Brothers - Roving Gambler
TTITLE12=Patti Page - Mockin' Bird Hill
TTITLE13=Hank Thompson - Wake Up Irene
TTITLE14=Jim Reeves - I Love You Because
TTITLE15=Jerry Lee Lewis - Great Balls Of Fire
TTITLE16=Roger Miller - Do - Wacka - Do
TTITLE17=Skeeter Davis - Am I That Easy To Forget
TTITLE18=Elvis Presley - I Forgot To Remember To Forgot
TTITLE19=Hank Williams - Hey Good Lookin'
EXTD=
EXTT0=
EXTT1=
EXTT2=
EXTT3=
EXTT4=
EXTT5=
EXTT6=
EXTT7=
EXTT8=
EXTT9=
EXTT10=
EXTT11=
EXTT12=
EXTT13=
EXTT14=
EXTT15=
EXTT16=
EXTT17=
EXTT18=
EXTT19=
PLAYORDER=
